<?xml version="1.0" encoding="UTF-8" standalone="no"?>
<svg
   width="1420"
   height="226"
   viewBox="0 0 1420 226"
   version="1.1"
   id="svg2"
   sodipodi:docname="NoscentiaLogoBlack.svg"
   inkscape:version="1.4.2 (f4327f4, 2025-05-13)"
   xmlns:inkscape="http://www.inkscape.org/namespaces/inkscape"
   xmlns:sodipodi="http://sodipodi.sourceforge.net/DTD/sodipodi-0.dtd"
   xmlns="http://www.w3.org/2000/svg"
   xmlns:svg="http://www.w3.org/2000/svg">
  <defs
     id="defs2" />
  <sodipodi:namedview
     id="namedview2"
     pagecolor="#ffffff"
     bordercolor="#111111"
     borderopacity="1"
     inkscape:showpageshadow="0"
     inkscape:pageopacity="0"
     inkscape:pagecheckerboard="1"
     inkscape:deskcolor="#d1d1d1"
     showguides="true"
     inkscape:zoom="0.39404297"
     inkscape:cx="732.15365"
     inkscape:cy="-285.50186"
     inkscape:window-width="1920"
     inkscape:window-height="1009"
     inkscape:window-x="1912"
     inkscape:window-y="183"
     inkscape:window-maximized="1"
     inkscape:current-layer="g2" />
  <g
     id="g2">
    <path
       id="path1"
       d="m 36.652212,138.66627 c -0.613906,0.67741 -1.757042,1.23488 -2.547359,1.23488 -3.330619,0 -12.052325,-12.21463 -17.316398,-24.24578 C 5.385317,89.574948 8.468962,61.278813 25.129117,39.164077 37.061484,23.322474 54.82949,13.394129 75.83639,10.811488 79.1529,10.409272 99.4965,10.070566 122.76143,10.04234 L 163.82966,10 l 1.30543,1.608858 c 3.95865,4.883025 -3.57759,16.942402 -12.21462,19.532098 -1.8276,0.550398 -14.21158,0.797373 -39.62873,0.804429 -34.17412,0 -37.39186,0.105849 -42.68415,1.375997 -9.787218,2.342721 -16.624867,5.990876 -23.829448,12.701506 -6.87293,6.407205 -12.997883,16.96357 -15.573468,26.84252 -1.100799,4.226778 -2.483852,24.831454 -1.608859,23.991744 0.19758,-0.19052 2.27216,-3.21772 4.607828,-6.71769 C 39.129008,82.751417 48.9374,72.971255 55.231704,69.153741 64.835465,63.325165 76.51379,59.620558 86.91493,59.098386 c 3.49292,-0.176411 26.44032,-0.486892 50.98953,-0.677414 43.86961,-0.35282 44.65993,-0.338707 46.04299,1.044345 4.629,4.628995 -3.14715,17.408121 -12.2358,20.103662 -2.9778,0.889105 -10.34468,1.058458 -45.64783,1.058458 -39.86158,0 -42.39483,0.07762 -47.68007,1.418335 -13.943444,3.549371 -25.572388,13.08255 -32.692293,26.807238 -3.245942,6.25196 -5.242903,12.6874 -6.79531,21.87482 -0.620964,3.69049 -1.630029,7.26104 -2.243935,7.93844 z m 67.247468,76.68889 c -6.27313,0.86793 -17.18938,0.86087 -23.3355,-0.0282 -12.11584,-1.74294 -25.42421,-7.33159 -33.36971,-14.014 -10.73278,-9.01101 -16.843619,-24.1752 -15.058352,-37.32126 1.905228,-13.97871 10.641047,-30.44835 20.886935,-39.36056 8.94751,-7.79733 21.663147,-13.75996 33.637847,-15.77105 2.65321,-0.44455 23.26494,-0.93849 50.4109,-1.19958 l 45.93009,-0.4375 1.17137,1.67942 c 2.61086,3.71873 0.26814,10.82451 -5.19352,15.764 -1.1008,0.99495 -1.90521,1.78526 -2.82255,2.41327 -3.60582,2.49092 -8.9193,2.50502 -40.63779,2.56853 -1.66532,0.007 -3.40119,0.007 -5.20762,0.0141 -35.22554,0.0847 -41.22348,0.24698 -45.51376,1.27016 -18.106726,4.3185 -32.847538,20.59055 -33.073342,36.51682 -0.07056,4.66428 0.204635,5.89209 2.229819,10.00597 3.888078,7.91021 11.501929,13.50595 22.375833,16.46962 2.32862,0.62802 8.19954,1.31249 13.05434,1.51712 12.17229,0.50806 19.15812,-0.83265 28.86773,-5.53926 6.42838,-3.11892 8.14307,-4.36791 13.79525,-10.02007 6.94349,-6.95762 10.14709,-12.0735 11.98882,-19.15813 1.67942,-6.42836 2.13808,-6.71062 10.9233,-6.71062 11.636,0 12.55333,1.46773 8.47473,13.65412 -4.21267,12.61683 -12.48276,24.38689 -22.89096,32.59347 -9.27209,7.31044 -23.84356,13.30837 -36.64386,15.09364 z"
       style="stroke-width:0.705639" />
    <text
       xml:space="preserve"
       style="font-style:normal;font-variant:normal;font-weight:500;font-stretch:normal;font-size:4.21622px;line-height:0.95;font-family:'Visby Round CF';-inkscape-font-specification:'Visby Round CF Medium';white-space:pre;inline-size:209.561;display:inline"
       x="274.08179"
       y="97.705078"
       id="text13"
       transform="matrix(64.23271,0,0,66.838576,-17411.281,-6316.4409)"><tspan
         x="274.08179"
         y="97.705078"
         id="tspan4">Noscentia</tspan></text>
    <text
       xml:space="preserve"
       style="font-size:281.806px;line-height:1.25;font-family:'Visby Round CF';-inkscape-font-specification:'Visby Round CF, Normal'"
       x="333.71994"
       y="-189.06567"
       id="text2"><tspan
         sodipodi:role="line"
         id="tspan2"
         x="333.71994"
         y="-189.06567"></tspan></text>
    <text
       xml:space="preserve"
       style="font-size:281.806px;line-height:1.25;font-family:'Visby Round CF';-inkscape-font-specification:'Visby Round CF, Normal'"
       x="578.61713"
       y="-87.553902"
       id="text3"><tspan
         sodipodi:role="line"
         id="tspan3"
         x="578.61713"
         y="-87.553902" /></text>
  </g>
</svg>
