<?xml version="1.0" encoding="UTF-8" standalone="no"?>
<svg
   width="1420"
   height="226"
   viewBox="0 0 1420 226"
   version="1.1"
   id="svg2"
   sodipodi:docname="NoscentiaLogoBlack.svg"
   inkscape:version="1.4.2 (f4327f4, 2025-05-13)"
   xmlns:inkscape="http://www.inkscape.org/namespaces/inkscape"
   xmlns:sodipodi="http://sodipodi.sourceforge.net/DTD/sodipodi-0.dtd"
   xmlns="http://www.w3.org/2000/svg"
   xmlns:svg="http://www.w3.org/2000/svg">
  <defs
     id="defs2" />
  <sodipodi:namedview
     id="namedview2"
     pagecolor="#ffffff"
     bordercolor="#111111"
     borderopacity="1"
     inkscape:showpageshadow="0"
     inkscape:pageopacity="0"
     inkscape:pagecheckerboard="1"
     inkscape:deskcolor="#d1d1d1"
     showguides="true"
     inkscape:zoom="0.39404297"
     inkscape:cx="732.15365"
     inkscape:cy="-285.50186"
     inkscape:window-width="1920"
     inkscape:window-height="1009"
     inkscape:window-x="1912"
     inkscape:window-y="183"
     inkscape:window-maximized="1"
     inkscape:current-layer="g2" />
  <g
     id="g2">
    <path
       id="path1"
       d="m 36.652212,138.66627 c -0.613906,0.67741 -1.757042,1.23488 -2.547359,1.23488 -3.330619,0 -12.052325,-12.21463 -17.316398,-24.24578 C 5.385317,89.574948 8.468962,61.278813 25.129117,39.164077 37.061484,23.322474 54.82949,13.394129 75.83639,10.811488 79.1529,10.409272 99.4965,10.070566 122.76143,10.04234 L 163.82966,10 l 1.30543,1.608858 c 3.95865,4.883025 -3.57759,16.942402 -12.21462,19.532098 -1.8276,0.550398 -14.21158,0.797373 -39.62873,0.804429 -34.17412,0 -37.39186,0.105849 -42.68415,1.375997 -9.787218,2.342721 -16.624867,5.990876 -23.829448,12.701506 -6.87293,6.407205 -12.997883,16.96357 -15.573468,26.84252 -1.100799,4.226778 -2.483852,24.831454 -1.608859,23.991744 0.19758,-0.19052 2.27216,-3.21772 4.607828,-6.71769 C 39.129008,82.751417 48.9374,72.971255 55.231704,69.153741 64.835465,63.325165 76.51379,59.620558 86.91493,59.098386 c 3.49292,-0.176411 26.44032,-0.486892 50.98953,-0.677414 43.86961,-0.35282 44.65993,-0.338707 46.04299,1.044345 4.629,4.628995 -3.14715,17.408121 -12.2358,20.103662 -2.9778,0.889105 -10.34468,1.058458 -45.64783,1.058458 -39.86158,0 -42.39483,0.07762 -47.68007,1.418335 -13.943444,3.549371 -25.572388,13.08255 -32.692293,26.807238 -3.245942,6.25196 -5.242903,12.6874 -6.79531,21.87482 -0.620964,3.69049 -1.630029,7.26104 -2.243935,7.93844 z m 67.247468,76.68889 c -6.27313,0.86793 -17.18938,0.86087 -23.3355,-0.0282 -12.11584,-1.74294 -25.42421,-7.33159 -33.36971,-14.014 -10.73278,-9.01101 -16.843619,-24.1752 -15.058352,-37.32126 1.905228,-13.97871 10.641047,-30.44835 20.886935,-39.36056 8.94751,-7.79733 21.663147,-13.75996 33.637847,-15.77105 2.65321,-0.44455 23.26494,-0.93849 50.4109,-1.19958 l 45.93009,-0.4375 1.17137,1.67942 c 2.61086,3.71873 0.26814,10.82451 -5.19352,15.764 -1.1008,0.99495 -1.90521,1.78526 -2.82255,2.41327 -3.60582,2.49092 -8.9193,2.50502 -40.63779,2.56853 -1.66532,0.007 -3.40119,0.007 -5.20762,0.0141 -35.22554,0.0847 -41.22348,0.24698 -45.51376,1.27016 -18.106726,4.3185 -32.847538,20.59055 -33.073342,36.51682 -0.07056,4.66428 0.204635,5.89209 2.229819,10.00597 3.888078,7.91021 11.501929,13.50595 22.375833,16.46962 2.32862,0.62802 8.19954,1.31249 13.05434,1.51712 12.17229,0.50806 19.15812,-0.83265 28.86773,-5.53926 6.42838,-3.11892 8.14307,-4.36791 13.79525,-10.02007 6.94349,-6.95762 10.14709,-12.0735 11.98882,-19.15813 1.67942,-6.42836 2.13808,-6.71062 10.9233,-6.71062 11.636,0 12.55333,1.46773 8.47473,13.65412 -4.21267,12.61683 -12.48276,24.38689 -22.89096,32.59347 -9.27209,7.31044 -23.84356,13.30837 -36.64386,15.09364 z"
       style="stroke-width:0.705639" />
    <path
       d="m 276.51057,94.741076 c -0.097,0 -0.18129,0.08854 -0.18129,0.185513 v 2.137624 l -1.64433,-2.217732 c -0.0548,-0.07168 -0.10962,-0.105405 -0.18551,-0.105405 -0.0843,0 -0.16444,0.05903 -0.16444,0.168648 v 2.626705 c 0,0.09697 0.0843,0.185514 0.1813,0.185514 0.097,0 0.1813,-0.08854 0.1813,-0.185514 v -2.137623 l 1.64433,2.217732 c 0.0548,0.07167 0.10962,0.105405 0.18551,0.105405 0.0843,0 0.16443,-0.05903 0.16443,-0.168649 v -2.626705 c 0,-0.09697 -0.0843,-0.185513 -0.1813,-0.185513 z m 1.69914,0.74627 c -0.48486,0 -1.09621,0.375244 -1.09621,1.125731 0,0.754704 0.61135,1.121515 1.09621,1.121515 0.48909,0 1.10044,-0.366811 1.10044,-1.121515 0,-0.750487 -0.61135,-1.125731 -1.10044,-1.125731 z m 0,0.307785 c 0.35417,0 0.75049,0.274054 0.75049,0.817946 0,0.539676 -0.39632,0.813731 -0.75049,0.813731 -0.34994,0 -0.75048,-0.274055 -0.75048,-0.813731 0,-0.543892 0.40054,-0.817946 0.75048,-0.817946 z m 2.19244,-0.307785 c -0.41741,0 -0.75049,0.240325 -0.75049,0.607136 0,0.274054 0.17708,0.493298 0.57341,0.598703 l 0.31621,0.08433 c 0.22346,0.05903 0.34995,0.151784 0.34995,0.320432 0,0.215028 -0.22346,0.328866 -0.49752,0.328866 -0.21924,0 -0.4174,-0.08011 -0.51437,-0.278271 -0.0337,-0.06324 -0.0759,-0.105405 -0.15179,-0.105405 -0.0928,0 -0.14335,0.07167 -0.14335,0.147567 0,0.08011 0.0464,0.143352 0.0632,0.172865 0.10119,0.202379 0.3879,0.362595 0.74627,0.362595 0.43849,0 0.84325,-0.223459 0.84325,-0.649298 0,-0.337297 -0.25719,-0.497514 -0.63243,-0.598703 l -0.26984,-0.06746 c -0.24876,-0.06324 -0.34152,-0.181298 -0.34152,-0.320433 0,-0.185514 0.156,-0.312 0.40898,-0.312 0.21502,0 0.35416,0.09276 0.43848,0.215027 0.059,0.08011 0.10541,0.105405 0.16444,0.105405 0.0801,0 0.14335,-0.05059 0.14335,-0.134919 0,-0.05059 -0.0169,-0.09276 -0.0422,-0.134919 -0.13492,-0.206595 -0.3879,-0.341514 -0.70411,-0.341514 z m 2.89232,1.60638 c -0.0632,0 -0.11384,0.03795 -0.14757,0.08011 -0.12648,0.168649 -0.33729,0.244541 -0.52281,0.244541 -0.37524,0 -0.76735,-0.269838 -0.76735,-0.809514 0,-0.543892 0.39211,-0.81373 0.76735,-0.81373 0.18552,0 0.39633,0.07589 0.52281,0.24454 0.0337,0.04216 0.0843,0.08011 0.14757,0.08011 0.0801,0 0.14757,-0.05903 0.14757,-0.143351 0,-0.06746 -0.0464,-0.113838 -0.0801,-0.156 -0.18551,-0.22346 -0.45113,-0.333082 -0.7547,-0.333082 -0.49752,0 -1.09622,0.366812 -1.09622,1.121515 0,0.750487 0.5987,1.117298 1.09622,1.117298 0.30357,0 0.56919,-0.113838 0.7547,-0.337297 0.0337,-0.03795 0.0801,-0.08433 0.0801,-0.151784 0,-0.08432 -0.0675,-0.143352 -0.14757,-0.143352 z m 1.52206,-1.60638 c -0.48065,0 -1.07935,0.366812 -1.07935,1.125731 0,0.75892 0.57762,1.113082 1.11729,1.113082 0.26563,0 0.51438,-0.08011 0.68303,-0.227676 0.0717,-0.06324 0.0928,-0.109621 0.0928,-0.156 0,-0.07589 -0.0506,-0.130703 -0.13071,-0.130703 -0.0464,0 -0.0843,0.02108 -0.14756,0.06324 -0.13914,0.105405 -0.29514,0.160216 -0.48908,0.160216 -0.3626,0 -0.72519,-0.22346 -0.76314,-0.695676 l 1.55157,0.0084 c 0.14335,0 0.22346,-0.06324 0.22346,-0.198162 0,-0.683028 -0.57762,-1.062488 -1.05827,-1.062488 z m 0,0.307785 c 0.31621,0 0.67881,0.210811 0.71675,0.683027 h -1.43351 c 0.038,-0.472216 0.40476,-0.683027 0.71676,-0.683027 z m 2.61827,-0.303568 c -0.50173,0 -0.76314,0.383676 -0.78843,0.527027 v -0.341514 c 0,-0.09697 -0.0801,-0.177081 -0.17287,-0.177081 -0.097,0 -0.17708,0.08011 -0.17708,0.177081 v 1.872002 c 0,0.09276 0.0801,0.177081 0.17708,0.177081 0.0928,0 0.17287,-0.08432 0.17287,-0.177081 v -1.146812 c 0.0379,-0.240324 0.25719,-0.602919 0.68724,-0.602919 0.29514,0 0.57341,0.172865 0.57341,0.632433 v 1.117298 c 0,0.09276 0.0759,0.177081 0.17286,0.177081 0.097,0 0.17708,-0.08432 0.17708,-0.177081 V 96.43178 c 0,-0.699893 -0.42584,-0.940217 -0.82216,-0.940217 z m 2.12497,1.905731 c -0.0464,0.0084 -0.10119,0.0253 -0.16443,0.0253 -0.10541,0 -0.16022,-0.05481 -0.16022,-0.185513 v -1.433515 h 0.3373 c 0.0843,0 0.14757,-0.05903 0.14757,-0.147568 0,-0.08854 -0.0632,-0.143351 -0.14757,-0.143351 h -0.3373 v -0.362595 c 0,-0.09276 -0.0759,-0.172865 -0.17286,-0.172865 -0.097,0 -0.17709,0.08011 -0.17709,0.172865 v 0.362595 h -0.18551 c -0.0885,0 -0.14757,0.05481 -0.14757,0.143351 0,0.08854 0.059,0.147568 0.14757,0.147568 h 0.18551 v 1.446163 c 0,0.396325 0.21503,0.476433 0.43849,0.476433 0.18973,0 0.39633,-0.05481 0.39633,-0.206595 0,-0.08432 -0.0675,-0.143351 -0.16022,-0.12227 z m 0.72097,-2.390597 c 0.0928,0 0.17708,-0.08011 0.17708,-0.177081 0,-0.09697 -0.0843,-0.177081 -0.17708,-0.177081 -0.097,0 -0.1813,0.08011 -0.1813,0.177081 0,0.09697 0.0843,0.177081 0.1813,0.177081 z m 0,0.493298 c -0.097,0 -0.17708,0.08011 -0.17708,0.177081 v 1.872002 c 0,0.101189 0.0801,0.181297 0.17708,0.181297 0.0928,0 0.17287,-0.08011 0.17287,-0.181297 v -1.872002 c 0,-0.09697 -0.0801,-0.177081 -0.17287,-0.177081 z m 1.6359,-0.01265 c -0.46801,0 -1.03719,0.371028 -1.03719,1.121515 0,0.75892 0.56918,1.125731 1.03719,1.125731 0.37524,0 0.66616,-0.227676 0.75048,-0.484866 v 0.303568 c 0,0.09276 0.0801,0.177081 0.17287,0.177081 0.097,0 0.17708,-0.08432 0.17708,-0.177081 v -1.876218 c 0,-0.09697 -0.0759,-0.177081 -0.17708,-0.177081 -0.0928,0 -0.17287,0.08011 -0.17287,0.177081 v 0.252974 c -0.1307,-0.282487 -0.43005,-0.442704 -0.75048,-0.442704 z m 0.0506,1.939462 c -0.34151,0 -0.73784,-0.261406 -0.73784,-0.817947 0,-0.552325 0.39633,-0.817947 0.73784,-0.817947 0.32887,0 0.71676,0.240325 0.71676,0.817947 0,0.564973 -0.38789,0.817947 -0.71676,0.817947 z"
       id="text13"
       style="font-weight:500;font-size:4.21622px;line-height:0.95;font-family:'Visby Round CF';-inkscape-font-specification:'Visby Round CF Medium';white-space:pre;inline-size:209.561"
       transform="matrix(64.23271,0,0,66.838576,-17411.281,-6316.4409)"
       aria-label="Noscentia" />
    <text
       xml:space="preserve"
       style="font-size:281.806px;line-height:1.25;font-family:'Visby Round CF';-inkscape-font-specification:'Visby Round CF, Normal'"
       x="333.71994"
       y="-189.06567"
       id="text2"><tspan
         sodipodi:role="line"
         id="tspan2"
         x="333.71994"
         y="-189.06567"></tspan></text>
    <text
       xml:space="preserve"
       style="font-size:281.806px;line-height:1.25;font-family:'Visby Round CF';-inkscape-font-specification:'Visby Round CF, Normal'"
       x="578.61713"
       y="-87.553902"
       id="text3"><tspan
         sodipodi:role="line"
         id="tspan3"
         x="578.61713"
         y="-87.553902" /></text>
  </g>
</svg>
