<?xml version="1.0" encoding="UTF-8" standalone="no"?>
<svg
   width="332"
   height="332"
   viewBox="0 0 332 332"
   version="1.1"
   id="svg2"
   sodipodi:docname="NoscentiaIconWhite.svg"
   inkscape:version="1.4.2 (f4327f4, 2025-05-13)"
   xmlns:inkscape="http://www.inkscape.org/namespaces/inkscape"
   xmlns:sodipodi="http://sodipodi.sourceforge.net/DTD/sodipodi-0.dtd"
   xmlns="http://www.w3.org/2000/svg"
   xmlns:svg="http://www.w3.org/2000/svg">
  <defs
     id="defs2" />
  <sodipodi:namedview
     id="namedview2"
     pagecolor="#ffffff"
     bordercolor="#111111"
     borderopacity="1"
     inkscape:showpageshadow="0"
     inkscape:pageopacity="0"
     inkscape:pagecheckerboard="1"
     inkscape:deskcolor="#d1d1d1"
     showguides="true"
     inkscape:zoom="0.78808594"
     inkscape:cx="512"
     inkscape:cy="410.48823"
     inkscape:window-width="1920"
     inkscape:window-height="1009"
     inkscape:window-x="1912"
     inkscape:window-y="183"
     inkscape:window-maximized="1"
     inkscape:current-layer="g2" />
  <g
     id="g2">
    <path
       id="path1"
       d="m 79.538325,202.3731 c -0.870001,0.96 -2.490002,1.75 -3.610004,1.75 -4.720005,0 -17.080018,-17.31001 -24.540026,-34.36002 C 35.228277,132.80306 39.598282,92.703041 63.208308,61.363024 80.118326,38.913012 105.29835,24.843005 135.06838,21.183001 139.7684,20.613 168.59843,20.133 201.56846,20.093 l 58.20007,-0.06 1.85,2.280001 c 5.61001,6.920006 -5.07001,24.010015 -17.31002,27.680017 -2.59,0.78 -20.14002,1.130001 -56.16006,1.140001 -48.43005,0 -52.99007,0.15 -60.49008,1.950001 -13.87001,3.320001 -23.56002,8.490004 -33.770029,18.000009 -9.740011,9.080005 -18.42002,24.040013 -22.070024,38.040021 -1.560002,5.99 -3.520004,35.19002 -2.280003,34.00002 0.280001,-0.27 3.220004,-4.56001 6.530008,-9.52001 6.980007,-10.47 20.880022,-24.33001 29.800028,-29.74002 13.61002,-8.259998 30.16003,-13.51 44.90006,-14.250001 4.95,-0.25 37.47004,-0.69 72.26008,-0.96 62.17006,-0.500001 63.29007,-0.480001 65.25007,1.48 6.56001,6.560004 -4.46001,24.670011 -17.34002,28.490011 -4.22001,1.26 -14.66002,1.5 -64.69007,1.5 -56.49006,0 -60.08007,0.11 -67.57007,2.01 -19.76003,5.03001 -36.24005,18.54001 -46.330061,37.99002 -4.600005,8.86001 -7.430008,17.98001 -9.63001,31.00002 -0.880001,5.23 -2.310003,10.29001 -3.180004,11.25001 z m 95.300105,108.68006 c -8.89,1.23 -24.36002,1.22 -33.07003,-0.04 -17.17003,-2.47001 -36.03005,-10.39001 -47.290058,-19.86002 -15.210017,-12.77 -23.870026,-34.26001 -21.340024,-52.89002 2.700003,-19.81001 15.080017,-43.15003 29.600032,-55.78003 12.68001,-11.05001 30.70003,-19.50001 47.67006,-22.35002 3.76,-0.63 32.97003,-1.33 71.44008,-1.7 l 65.09007,-0.62 1.66,2.38 c 3.7,5.27001 0.38,15.34001 -7.36001,22.34002 -1.56,1.41 -2.7,2.53 -4,3.42 -5.11001,3.53 -12.64002,3.55 -57.59007,3.64 -2.36,0.01 -4.82,0.01 -7.38,0.02 -49.92006,0.12 -58.42007,0.35 -64.50007,1.8 -25.66004,6.12 -46.55006,29.18002 -46.87006,51.75003 -0.1,6.61 0.29,8.35 3.16,14.18001 5.51001,11.21 16.30002,19.14001 31.71003,23.34001 3.30002,0.89 11.62003,1.86 18.50003,2.15 17.25002,0.72 27.15003,-1.18 40.91005,-7.85 9.11001,-4.42001 11.54001,-6.19001 19.55002,-14.20001 9.84001,-9.86001 14.38001,-17.11001 16.99002,-27.15002 2.38,-9.11 3.03,-9.51 15.48001,-9.51 16.49002,0 17.79002,2.08 12.01002,19.35001 -5.97001,17.88001 -17.69002,34.56002 -32.44004,46.19002 -13.14001,10.36001 -33.79004,18.86001 -51.93006,21.39002 z"
       style="fill:#ffffff" />
  </g>
</svg>
